# xmcd
#
# Track frame offsets: 
#        150
#        13556
#        27937
#        41067
#        55697
#        78340
#        87269
#        101735
#        112163
#        132065
#        148117
#
# Disc length: 2200 seconds
#
# Revision: 1
# Processed by: cddbd v1.5.2PL0 Copyright (c) Steve Scherf et al.
# Submitted via: ExactAudioCopy v0.90b4
#
DISCID=8d08960b
DTITLE=Ricky Koole - Harmonium Live
DYEAR=2009
DGENRE=Pop-Folk
TTITLE0=If He's Ever Near
TTITLE1=Find A River
TTITLE2=Don't Think Twice, It's All Right
TTITLE3=I Live On A Battlefield
TTITLE4=It Makes No Difference
TTITLE5=Reason To Believe
TTITLE6=That's The Way That The World Goes 'Round
TTITLE7=Lost And Lookin'
TTITLE8=Seven Shades Of Blue
TTITLE9=Crossroads
TTITLE10=Love's Enough
EXTD=
EXTT0=
EXTT1=
EXTT2=
EXTT3=
EXTT4=
EXTT5=
EXTT6=
EXTT7=
EXTT8=
EXTT9=
EXTT10=
PLAYORDER=
